<?xml version="1.0"?><svg width="1024" height="768" xmlns="http://www.w3.org/2000/svg">
 <title>Mountain snow</title>
 <g>
  <title>Layer 1</title>
  <path d="m691.202576,236.665344l17.342224,-5.250397l24.557007,9.591003c7.2901,1.018738 8.021301,7.964478 24.1203,11.238937c16.098877,3.27449 27.641541,6.112381 34.62793,8.513657c6.986389,2.401337 12.757813,4.438782 17.314026,6.112457c4.556274,1.673584 9.720093,3.419983 15.491516,5.239136c5.771362,1.819214 14.428223,3.820221 25.970825,6.003265c11.542725,2.182983 -4.19458,0.8909 24.199951,4.817627c-8.044189,-0.846375 10.288635,3.48938 24.700012,7.652466c5.005554,5.962128 16.622864,9.817078 22.578003,14.42514c4.398132,5.147125 51.618896,12.659576 59.214905,19.069611c-14.359131,2.320068 -74.457275,-0.598572 -64.770142,1.551636l-19.563416,-4.79776l-11.608093,1.247955c-47.848938,0.085632 -51.606995,0.247559 -62.272644,1.89502c-7.290039,-0.436584 16.544373,-8.529846 47.993347,-13.732635c7.210327,-1.9086 22.061035,-1.618591 31.941895,-5.202911c-5.814331,-4.175476 -13.946289,-10.46048 -22.318481,-12.040131c-9.720093,-1.164246 4.236816,0.115936 -14.595947,-1.630463c-18.832642,-1.746429 -15.80304,-1.685699 -21.878235,-2.558899c-6.074951,-0.873169 -13.516968,-2.073822 -22.325806,-3.601929c-8.808777,-1.528076 -17.313904,-3.128937 -25.515381,-4.802582c-8.201294,-1.673645 -12.453857,-2.546814 -12.757568,-2.619598l-0.455688,-0.109161l-0.455688,0.109161c-0.30365,0.072784 -5.619324,-0.072754 -15.947083,-0.436615l-15.491394,-0.545746l-4.556396,-1.85556c-3.037476,-1.23703 -6.226868,-2.546814 -9.568237,-3.929352c-3.341248,-1.382599 -7.290161,-2.692383 -11.846375,-3.929413c-4.556274,-1.23703 -8.656982,-2.037476 -12.302063,-2.401276l-5.467468,-0.545776l1.822388,6.330688l1.822571,6.330688l9.11261,1.200653c6.075134,0.800446 13.668884,1.600891 22.781555,2.401306l12.314148,2.870758l6.366821,0.512878c3.341248,1.455353 5.923035,2.546814 7.745667,3.274506l2.733826,1.091492l7.745728,0.982361c5.163757,0.654877 10.631348,1.455292 16.402649,2.401276c5.771423,0.945953 8.808899,1.637207 9.112671,2.073853l0.455505,0.654877l-41.917969,1.200684c-27.945313,0.800415 -45.259277,0.909546 -51.941895,0.327454c-6.682617,-0.582153 -10.17572,-0.909576 -10.479553,-0.982361l-0.455688,-0.109192l2.733826,-2.182983c1.82251,-1.455292 4.556274,-2.619568 8.201416,-3.492798l5.467529,-1.309784l-7.745728,-0.98233c-5.163696,-0.654907 -11.542664,-1.382599 -19.136475,-2.183044l-11.390869,-1.200562l-3.64502,-2.619659c-2.429932,-1.746368 -5.315613,-3.965759 -8.657043,-6.658112l-5.011841,-4.038574l-4.100769,0.545776c-2.733765,0.363831 -5.619385,1.709991 -8.656921,4.038513c-3.037537,2.328552 -9.416321,7.349426 -19.136475,15.062683c-9.720154,7.713257 -18.98468,13.207153 -27.793457,16.481659c-8.809021,3.274445 -17.617798,6.257874 -26.426697,8.950226c-8.808899,2.692383 -17.010193,5.384735 -24.604065,8.077118c-7.593872,2.692352 -12.75769,4.657043 -15.491455,5.894073c-2.733826,1.23703 -5.315674,2.874268 -7.745728,4.911743c-2.430054,2.037445 -4.708191,4.184113 -6.834534,6.43985c-2.126282,2.255768 -4.100586,3.420044 -5.923218,3.492798l-11.45166,10.537567l-1.351196,-3.551605c0.948853,-7.006683 8.246674,-10.442352 10.069092,-14.080719c1.822632,-3.638275 5.011963,-7.16748 9.568237,-10.587524c4.556396,-3.420013 8.505188,-5.82132 11.846436,-7.203888c3.34137,-1.382538 8.808899,-3.420044 16.402771,-6.112396c7.593872,-2.692383 14.276428,-5.020874 20.047791,-6.985565c5.771362,-1.964722 9.872009,-3.747467 12.302002,-5.348328c2.430115,-1.600861 5.315735,-4.766205 8.656982,-9.496033l5.011963,-7.094757l-7.290161,0c-4.860046,0 -9.568115,0.472992 -14.124451,1.418976c-4.556335,0.945923 -9.264526,2.583221 -14.124634,4.911682c-4.860046,2.328552 -13.972717,8.149902 -27.337891,17.463989c-13.365112,9.314148 -26.274689,16.918243 -38.728638,22.812317c-12.453888,5.894104 -20.655243,9.605194 -24.604034,11.133301c-3.948792,1.528076 -10.327667,4.07489 -19.136566,7.640442c-8.808777,3.565613 -18.832703,6.985596 -30.071625,10.260101c-11.238953,3.274475 -18.22525,5.311951 -20.959045,6.112396c-2.733795,0.800415 -5.315643,1.491699 -7.745728,2.073822c-2.430023,0.582123 -10.631378,2.255798 -24.604126,5.020905c-13.972626,2.765076 -31.894135,5.384735 -53.764404,7.858795c-21.870331,2.47403 -40.095551,4.511505 -54.675751,6.112396c-14.5802,1.60083 -24.452225,2.728729 -29.616028,3.383606l-7.745728,0.982361l2.733749,-1.528076c1.822556,-1.018738 4.40448,-2.037476 7.745789,-3.056183c3.341248,-1.018707 6.986298,-1.746429 10.935135,-2.183044c3.948807,-0.436554 9.720139,-1.346161 17.313965,-2.728699c7.593872,-1.382599 15.035828,-2.583221 22.325928,-3.601959c7.2901,-1.018677 13.972687,-1.964722 20.04776,-2.83786c6.075134,-0.87323 14.732117,-2.219421 25.971008,-4.038544c11.238892,-1.819183 22.477783,-3.783875 33.716675,-5.894104c11.238953,-2.110229 20.351563,-4.147705 27.33786,-6.112396c6.986359,-1.964722 12.605835,-3.674713 16.858368,-5.130035c4.252594,-1.455353 9.11261,-3.492828 14.5802,-6.112427c5.46756,-2.619598 14.58017,-6.767273 27.33786,-12.443054c12.75766,-5.675812 20.199646,-9.605225 22.325836,-11.788177l3.189514,-3.274475l-3.189514,-0.436646c-2.12619,-0.291016 -4.404327,-0.7276 -6.834412,-1.309814c-2.429993,-0.582092 -8.353149,-2.001038 -17.769592,-4.256805c-9.416382,-2.255768 -16.858398,-3.674713 -22.325928,-4.256805l-8.201355,-0.873199l-6.378815,0l-6.378845,0l-15.947083,2.073761c-10.631378,1.38266 -19.895874,3.820313 -27.793488,7.313049c-7.897583,3.492828 -13.972687,7.203888 -18.22525,11.133301c-4.252563,3.929443 -6.682587,6.403534 -7.290131,7.422211c-0.607452,1.018738 -1.82251,2.182983 -3.64505,3.492828c-1.822479,1.309753 -3.493134,2.655945 -5.011902,4.038513c-1.518799,1.382538 -2.885681,2.110229 -4.100708,2.182983c-1.214996,0.072754 -3.341278,2.001099 -6.378784,5.784943c-3.037567,3.783844 -5.619507,5.894073 -7.745789,6.330688c-2.126251,0.436615 -5.011902,1.455353 -8.656952,3.056213l-5.46759,2.401245l0.911285,-5.020844l0.911255,-5.020905l-7.745728,2.292175c-5.163849,1.528076 -11.694519,3.45639 -19.592133,5.784912c-7.897614,2.328552 -13.061417,3.856598 -15.491501,4.584259c-2.430023,0.727692 -7.897583,1.49176 -16.402695,2.292145l-12.75769,1.200684l2.73378,-1.964691c1.822525,-1.309814 3.796967,-2.183044 5.923218,-2.619629c2.126282,-0.436554 5.31572,-1.455322 9.568253,-3.056183c4.252579,-1.60083 15.187744,-6.330688 32.80545,-14.189453c17.617737,-7.858795 27.034088,-12.806946 28.249146,-14.844391c1.214966,-2.037476 1.06311,-3.456421 -0.455627,-4.256866l-2.278168,-1.200623l-7.745789,2.510437c-5.163757,1.673645 -12.605743,4.620697 -22.325867,8.841125c-9.720123,4.22049 -26.882263,11.751831 -51.486343,22.594025c-24.60408,10.842285 -39.487991,17.172913 -44.65184,18.992065c-5.163834,1.819183 -10.327621,3.674744 -15.491455,5.56662c-5.163864,1.891968 -9.568237,3.165344 -13.213318,3.820251c-3.645065,0.654907 -12.453903,2.364899 -26.426613,5.130035c-13.972733,2.765137 -22.32592,4.32962 -25.059692,4.693451l-4.100685,0.545746l2.733795,-1.309784c1.822525,-0.87323 7.290092,-2.692352 16.40271,-5.457489c9.112602,-2.765106 20.503403,-6.949219 34.172333,-12.552246c13.66893,-5.602997 21.8703,-9.023041 24.604065,-10.260071c2.73381,-1.23703 10.783279,-5.057281 24.148483,-11.460724c13.365219,-6.403473 21.262817,-10.187286 23.692825,-11.351563c2.430038,-1.164276 16.098984,-7.93158 41.00679,-20.30188c24.907806,-12.370331 39.943665,-19.319489 45.107452,-20.847626l7.745789,-2.292145l13.668915,-0.436584l13.668915,-0.436554l6.834473,-2.510498c4.556335,-1.673615 10.93515,-4.22049 19.136505,-7.640472c8.201324,-3.420013 16.250824,-6.076019 24.148438,-7.967896c6.067291,-0.556427 6.420135,-6.164276 12.735748,0.469788l8.195129,0.643982l5.461304,1.720764c5.46759,0.436554 13.531097,-1.348175 15.045258,0.252106c1.514099,1.600281 5.480072,0.97702 19.161499,2.698273c10.023895,3.856628 19.895935,7.021973 29.616058,9.496033c9.720062,2.47406 16.402679,4.038544 20.047699,4.69339l5.467651,0.982361l5.011902,-3.929413c3.341278,-2.619537 7.442047,-5.384705 12.302094,-8.295319c4.860107,-2.910706 7.138184,-4.620697 6.834412,-5.130066l-0.455627,-0.764038l2.278198,-0.545746c1.518799,-0.3638 4.404419,-1.418976 8.656982,-3.165344c4.252563,-1.746399 8.960815,-3.383636 14.124573,-4.911743c5.163818,-1.528076 12.605835,-3.165344 22.325928,-4.911743c9.720154,-1.746399 17.769714,-3.238129 24.148438,-4.475098c6.378845,-1.237061 12.302063,-2.801514 17.769592,-4.693481c5.46759,-1.891968 9.872131,-3.929413 13.213318,-6.112396c3.341309,-2.183014 5.771362,-3.492798 7.2901,-3.929382c1.518799,-0.436646 6.075073,-1.710007 13.668884,-3.820251c7.593933,-2.110245 12.909668,-3.52916 15.947021,-4.256836c3.037659,-0.727692 6.98645,-1.455307 11.846558,-2.182983c4.860046,-0.727692 5.514587,-9.285263 14.627136,-9.576324l0,0z" id="path2" stroke-width="2px" stroke="#000000" fill-rule="evenodd" fill="#000000"/>
  <text fill="#000000" stroke="#000000" stroke-width="0" stroke-dasharray="null" stroke-linejoin="null" stroke-linecap="null" opacity="0.5" x="104" y="114" id="svg_1" font-size="24" font-family="serif" text-anchor="middle" xml:space="preserve"/>
  <text fill="#000000" stroke="#000000" stroke-width="0" stroke-dasharray="null" stroke-linejoin="null" stroke-linecap="null" opacity="0.5" x="87" y="105" id="svg_2" font-size="24" font-family="serif" text-anchor="middle" xml:space="preserve"/>
  <text fill="#000000" stroke="#000000" stroke-width="0" stroke-dasharray="null" stroke-linejoin="null" stroke-linecap="null" opacity="0.5" x="74" y="106" id="svg_3" font-size="24" font-family="serif" text-anchor="middle" xml:space="preserve"/>
  <text fill="#000000" stroke="#000000" stroke-width="0" stroke-dasharray="null" stroke-linejoin="null" stroke-linecap="null" opacity="0.5" x="121.5" y="128" id="svg_4" font-size="24" font-family="serif" text-anchor="middle" xml:space="preserve"/>
 </g>
</svg>